<?xml version="1.0" encoding="utf-8"?>
<!-- Generator: Adobe Illustrator 16.0.0, SVG Export Plug-In . SVG Version: 6.00 Build 0)  -->
<!DOCTYPE svg PUBLIC "-//W3C//DTD SVG 1.1//EN" "http://www.w3.org/Graphics/SVG/1.1/DTD/svg11.dtd">
<svg version="1.1" id="Layer_1" xmlns="http://www.w3.org/2000/svg" xmlns:xlink="http://www.w3.org/1999/xlink" x="0px" y="0px"
	 width="242.624px" height="56.617px" viewBox="0 0 242.624 56.617" enable-background="new 0 0 242.624 56.617"
	 xml:space="preserve">
<path fill="#E44F26" d="M0,0h18.924v18.696h17.311V0H55.16v56.618H36.236V37.66h-17.31v18.958H0V0L0,0z"/>
<path fill="#E44F26" d="M80.044,18.775h-16.66V0h52.252v18.775H98.969v37.843H80.045L80.044,18.775L80.044,18.775z"/>
<path fill="#E44F26" d="M123.929,0h19.733l12.137,19.894L167.926,0h19.739v56.618h-18.846V28.555l-13.021,20.13h-0.325
	l-13.028-20.13v28.063h-18.517L123.929,0L123.929,0z"/>
<path fill="#E44F26" d="M197.083,0h18.929v37.903h26.612v18.714h-45.542L197.083,0L197.083,0z"/>
</svg>
