<?xml version="1.0" encoding="utf-8"?>
<!-- Generator: Adobe Illustrator 16.0.0, SVG Export Plug-In . SVG Version: 6.00 Build 0)  -->
<!DOCTYPE svg PUBLIC "-//W3C//DTD SVG 1.1//EN" "http://www.w3.org/Graphics/SVG/1.1/DTD/svg11.dtd">
<svg version="1.1" id="Layer_1" xmlns="http://www.w3.org/2000/svg" xmlns:xlink="http://www.w3.org/1999/xlink" x="0px" y="0px"
	 width="316.417px" height="224.578px" viewBox="206.209 217.788 316.417 224.578"
	 enable-background="new 206.209 217.788 316.417 224.578" xml:space="preserve">
<path id="j" d="M206.209,401.123l36.733-22.23c7.086,12.564,13.533,23.195,28.996,23.195c14.822,0,24.167-5.798,24.167-28.351
	V220.366h45.107v154.009c0,46.721-27.385,67.986-67.34,67.986c-36.085,0-57.031-18.688-67.663-41.242"/>
<path id="s" d="M365.715,396.289l36.729-21.266c9.668,15.79,22.233,27.389,44.465,27.389c18.69,0,30.609-9.345,30.609-22.233
	c0-15.466-12.243-20.943-32.865-29.963l-11.274-4.836c-32.544-13.853-54.134-31.251-54.134-67.983
	c0-33.83,25.777-59.609,66.054-59.609c28.677,0,49.298,9.99,64.117,36.088l-35.121,22.554c-7.733-13.854-16.108-19.33-28.996-19.33
	c-13.21,0-21.588,8.377-21.588,19.33c0,13.533,8.378,19.012,27.708,27.39l11.276,4.832c38.343,16.434,59.932,33.187,59.932,70.883
	c0,40.601-31.898,62.831-74.751,62.831C405.988,442.365,378.923,422.39,365.715,396.289"/>
</svg>
