<?xml version="1.0" encoding="utf-8"?>
<!-- Generator: Adobe Illustrator 16.0.0, SVG Export Plug-In . SVG Version: 6.00 Build 0)  -->
<!DOCTYPE svg PUBLIC "-//W3C//DTD SVG 1.1//EN" "http://www.w3.org/Graphics/SVG/1.1/DTD/svg11.dtd">
<svg version="1.1"
	 id="svg2" xmlns:inkscape="http://www.inkscape.org/namespaces/inkscape" xmlns:sodipodi="http://sodipodi.sourceforge.net/DTD/sodipodi-0.dtd" xmlns:rdf="http://www.w3.org/1999/02/22-rdf-syntax-ns#" xmlns:svg="http://www.w3.org/2000/svg" xmlns:cc="http://creativecommons.org/ns#" xmlns:dc="http://purl.org/dc/elements/1.1/" sodipodi:docname="MongoDB-Logo.svg" inkscape:version="0.91 r13725"
	 xmlns="http://www.w3.org/2000/svg" xmlns:xlink="http://www.w3.org/1999/xlink" x="0px" y="0px" width="62.588px"
	 height="143.213px" viewBox="0 0 62.588 143.213" enable-background="new 0 0 62.588 143.213" xml:space="preserve">
<sodipodi:namedview  id="namedview4" borderopacity="1" bordercolor="#666666" pagecolor="#ffffff" inkscape:window-maximized="1" inkscape:pageopacity="0" inkscape:window-height="1145" inkscape:window-width="1920" inkscape:pageshadow="2" inkscape:current-layer="g10" inkscape:window-y="0" inkscape:window-x="0" inkscape:cx="210.82244" objecttolerance="10" inkscape:zoom="2.0079853" guidetolerance="10" showgrid="false" inkscape:cy="57.558266" gridtolerance="10">
	</sodipodi:namedview>
<g id="g14">
	<g>
		<defs>
			<path id="SVGID_1_" d="M34.493,139.629l-3.745-1.24c0,0,0.478-18.955-6.358-20.282c-4.508-5.223,0.694-223.111,17.07-0.746
				c0,0-5.605,2.814-6.666,7.594C33.733,129.736,34.493,139.629,34.493,139.629z"/>
		</defs>
		<clipPath id="SVGID_2_">
			<use xlink:href="#SVGID_1_"  overflow="visible"/>
		</clipPath>
		<g id="g16" clip-path="url(#SVGID_2_)">
			
				<linearGradient id="path30_1_" gradientUnits="userSpaceOnUse" x1="-51.2261" y1="308.0984" x2="-50.2261" y2="308.0984" gradientTransform="matrix(43.0493 14.5243 13.1019 -38.6334 -1821.7242 12718.0996)">
				<stop  offset="0" style="stop-color:#929669"/>
				<stop  offset="0.2308" style="stop-color:#929669"/>
				<stop  offset="1" style="stop-color:#FDFCF1"/>
			</linearGradient>
			<path id="path30" inkscape:connector-curvature="0" fill="url(#path30_1_)" d="M34.493,139.629l-3.745-1.24
				c0,0,0.478-18.955-6.358-20.282c-4.508-5.223,0.694-223.111,17.07-0.746c0,0-5.605,2.814-6.666,7.594
				C33.733,129.736,34.493,139.629,34.493,139.629"/>
		</g>
	</g>
</g>
<g id="g32">
	<g>
		<defs>
			<path id="SVGID_3_" d="M36.512,121.324c0,0,32.543-21.434,24.919-65.946c-7.342-32.34-24.677-42.972-26.54-47.03
				c-2.051-2.872-4.116-7.964-4.116-7.964l1.384,90.108C32.159,90.492,29.296,118.006,36.512,121.324z"/>
		</defs>
		<clipPath id="SVGID_4_">
			<use xlink:href="#SVGID_3_"  overflow="visible"/>
		</clipPath>
		<g id="g34" clip-path="url(#SVGID_4_)">
			
				<linearGradient id="path46_1_" gradientUnits="userSpaceOnUse" x1="-54.0366" y1="312.8601" x2="-53.0366" y2="312.8601" gradientTransform="matrix(30.1458 117.0264 125.9163 -20.1877 -37739.793 12640.8545)">
				<stop  offset="0" style="stop-color:#45AA3A"/>
				<stop  offset="1" style="stop-color:#3D9439"/>
			</linearGradient>
			<path id="path46" inkscape:connector-curvature="0" fill="url(#path46_1_)" d="M36.512,121.324c0,0,32.543-21.434,24.919-65.946
				c-7.342-32.34-24.677-42.972-26.54-47.03c-2.051-2.872-4.116-7.964-4.116-7.964l1.384,90.108
				C32.159,90.492,29.296,118.006,36.512,121.324"/>
		</g>
	</g>
</g>
<g id="g48">
	<g>
		<defs>
			<path id="SVGID_5_" d="M28.843,122.522c0,0-30.526-20.825-28.77-57.568C1.83,28.21,23.39,10.143,27.589,6.866
				c2.715-2.894,2.827-4.009,3.037-6.863c1.903,4.087,1.586,61.053,1.788,67.711C33.197,93.633,30.979,117.63,28.843,122.522
				L28.843,122.522z"/>
		</defs>
		<clipPath id="SVGID_6_">
			<use xlink:href="#SVGID_5_"  overflow="visible"/>
		</clipPath>
		<g id="g50" clip-path="url(#SVGID_6_)">
			
				<linearGradient id="path62_1_" gradientUnits="userSpaceOnUse" x1="-54.6567" y1="307.1785" x2="-53.6572" y2="307.1785" gradientTransform="matrix(52.7619 -11.988 -16.4871 -49.2637 7945.1665 14546.2383)">
				<stop  offset="0" style="stop-color:#41A83B"/>
				<stop  offset="1" style="stop-color:#5EBC44"/>
			</linearGradient>
			<path id="path62" inkscape:connector-curvature="0" fill="url(#path62_1_)" d="M28.843,122.522c0,0-30.526-20.825-28.77-57.568
				C1.83,28.21,23.39,10.143,27.589,6.866c2.715-2.894,2.827-4.009,3.037-6.863c1.903,4.087,1.586,61.053,1.788,67.711
				C33.197,93.633,30.979,117.63,28.843,122.522"/>
		</g>
	</g>
</g>
</svg>
