<?xml version="1.0" encoding="UTF-8" standalone="no"?>
<svg
   xmlns:dc="http://purl.org/dc/elements/1.1/"
   xmlns:cc="http://creativecommons.org/ns#"
   xmlns:rdf="http://www.w3.org/1999/02/22-rdf-syntax-ns#"
   xmlns:svg="http://www.w3.org/2000/svg"
   xmlns="http://www.w3.org/2000/svg"
   xmlns:sodipodi="http://sodipodi.sourceforge.net/DTD/sodipodi-0.dtd"
   xmlns:inkscape="http://www.inkscape.org/namespaces/inkscape"
   version="1.1"
   width="443.60303"
   height="159.0246"
   id="svg3030"
   sodipodi:docname="node_logo_2.svg"
   inkscape:version="0.92.4 (5da689c313, 2019-01-14)">
  <metadata
     id="metadata40">
    <rdf:RDF>
      <cc:Work
         rdf:about="">
        <dc:format>image/svg+xml</dc:format>
        <dc:type
           rdf:resource="http://purl.org/dc/dcmitype/StillImage" />
        <dc:title></dc:title>
      </cc:Work>
    </rdf:RDF>
  </metadata>
  <sodipodi:namedview
     pagecolor="#ffffff"
     bordercolor="#666666"
     borderopacity="1"
     objecttolerance="10"
     gridtolerance="10"
     guidetolerance="10"
     inkscape:pageopacity="0"
     inkscape:pageshadow="2"
     inkscape:window-width="1920"
     inkscape:window-height="1001"
     id="namedview38"
     showgrid="false"
     inkscape:zoom="1.6224829"
     inkscape:cx="321.38155"
     inkscape:cy="42.017328"
     inkscape:window-x="-9"
     inkscape:window-y="-9"
     inkscape:window-maximized="1"
     inkscape:current-layer="svg3030" />
  <defs
     id="defs3032" />
  <path
     inkscape:connector-curvature="0"
     style="fill:#404137;fill-opacity:1;fill-rule:evenodd;stroke:none"
     id="path22"
     d="M 298.53629,2.3542837e-4 C 298.12682,0.00523543 297.71265,0.10296543 297.34722,0.31731543 c -0.72963,0.42837 -1.18908,1.21507997 -1.18908,2.06105997 V 63.020915 c 0,0.59586 -0.27746,1.12831 -0.79271,1.42714 -0.51655,0.29958 -1.14689,0.29958 -1.6647,0 l -9.90893,-5.70755 c -1.47635,-0.85131 -3.27961,-0.8508 -4.75629,0 l -39.55645,22.83018 c -1.47889,0.85309 -2.37815,2.49432 -2.37815,4.20126 v 45.660365 c 0,1.70566 0.90053,3.2675 2.37815,4.12211 l 39.55645,22.83018 c 1.47889,0.85334 3.2774,0.85334 4.75629,0 l 39.55645,-22.83018 c 1.47762,-0.85461 2.37815,-2.41645 2.37815,-4.12211 V 17.598495 c 0,-1.73162 -0.94492,-3.35667 -2.45742,-4.20139 L 299.72536,0.23804543 c -0.36972,-0.20623 -0.7796,-0.24225 -1.18907,-0.23768000163 z M 44.07493,56.996285 c -0.75434,0.0304 -1.46304,0.16234 -2.14033,0.55502 L 2.37814,80.381485 C 0.9042,81.233555 0,82.785505 0,84.503605 l 0.0791,61.276705 c 0,0.85233 0.43971,1.64377 1.18908,2.06131 0.73449,0.43961 1.64613,0.43961 2.37814,0 l 23.46435,-13.4764 c 1.48635,-0.88302 2.45741,-2.41898 2.45741,-4.12211 v -28.61687 c 0,-1.706945 0.89794,-3.273595 2.37815,-4.122125 l 9.9882,-5.78668 c 0.74548,-0.43099 1.54581,-0.63418 2.37814,-0.63418 0.81525,0 1.65329,0.20294 2.37815,0.63418 l 9.9882,5.78668 c 1.48016,0.84853 2.37814,2.41518 2.37814,4.122125 v 28.61687 c 0,1.70313 0.98076,3.24899 2.45742,4.12211 l 23.46435,13.4764 c 0.73691,0.43961 1.64727,0.43961 2.37814,0 0.72836,-0.41754 1.18907,-1.20898 1.18907,-2.06131 l 0.0791,-61.276705 c 0,-1.7181 -0.89418,-3.27005 -2.37814,-4.12212 L 46.69063,57.551305 c -0.66905,-0.39268 -1.38089,-0.52408 -2.14033,-0.55502 h -0.47563 z m 355.45319,0.55502 c -0.8264,-10e-4 -1.63617,0.20801 -2.37815,0.63417 l -39.55645,22.83018 c -1.47762,0.85334 -2.37814,2.41518 -2.37814,4.12212 v 45.660355 c 0,1.71683 0.96711,3.2736 2.45741,4.12212 l 39.23937,22.35455 c 1.44908,0.82747 3.21842,0.88936 4.67701,0.0786 l 23.78144,-13.23846 c 0.75466,-0.41856 1.26517,-1.20036 1.26834,-2.06106 0.005,-0.86095 -0.44392,-1.63261 -1.18907,-2.06106 l -39.79427,-22.83018 c -0.74515,-0.42489 -1.26834,-1.28584 -1.26834,-2.14045 v -14.26886 c 0,-0.853095 0.52953,-1.634905 1.26834,-2.060815 l 12.36635,-7.13468 c 0.73564,-0.42566 1.63933,-0.42566 2.37814,0 l 12.36635,7.13468 c 0.73881,0.42591 1.18907,1.20772 1.18907,2.060815 v 11.2568 c 0,0.85435 0.45026,1.63489 1.18907,2.0608 0.74198,0.42718 1.63934,0.42895 2.37815,0 l 23.70216,-13.79298 c 1.47128,-0.854615 2.37814,-2.420515 2.37814,-4.122115 v -11.01886 c 0,-1.70187 -0.90369,-3.26751 -2.37814,-4.12212 l -39.31864,-22.83018 c -0.74041,-0.4292 -1.55174,-0.63315 -2.37814,-0.63417 z m -118.27301,34.08673 c 0.20623,0 0.44899,0.0507 0.63417,0.15727 l 13.55542,7.848 c 0.36782,0.21308 0.63417,0.605515 0.63417,1.030405 v 15.69575 c 0,0.42616 -0.26381,0.81884 -0.63417,1.03066 l -13.55542,7.84774 c -0.36909,0.21055 -0.81998,0.21055 -1.18907,0 l -13.55542,-7.84774 c -0.36909,-0.21308 -0.63417,-0.6045 -0.63417,-1.03066 v -15.69575 c 0,-0.42489 0.26635,-0.816305 0.63417,-1.030405 l 13.55542,-7.84673 c 0.18518,-0.10654 0.34864,-0.15727 0.5549,-0.15727 z" />
  <path
     inkscape:connector-curvature="0"
     style="fill:#83cd29;fill-opacity:1;fill-rule:evenodd;stroke:none"
     id="path28"
     d="m 162.90283,57.313365 c -0.82427,0 -1.63996,0.20801 -2.37814,0.63417 l -39.55645,22.75104 c -1.47889,0.85232 -2.37815,2.49584 -2.37815,4.20126 v 45.660355 c 0,1.70745 0.90022,3.26802 2.37815,4.12212 l 39.55645,22.83018 c 1.47889,0.8541 3.2774,0.8541 4.75629,0 l 39.55645,-22.83018 c 1.47635,-0.8541 2.37815,-2.41467 2.37815,-4.12212 V 84.899835 c 0,-1.70795 -0.89926,-3.34894 -2.37815,-4.20126 l -39.55645,-22.75104 c -0.73818,-0.42616 -1.55388,-0.63417 -2.37815,-0.63417 z m 236.54602,40.74629 c -0.15804,0 -0.33294,0 -0.47563,0.0786 l -7.61006,4.439205 c -0.28538,0.16235 -0.47563,0.46446 -0.47563,0.79271 v 8.71986 c 0,0.32825 0.19025,0.6291 0.47563,0.79272 l 7.61006,4.3598 c 0.28537,0.16488 0.58978,0.16488 0.87198,0 l 7.61006,-4.3598 c 0.28221,-0.16235 0.47563,-0.46447 0.47563,-0.79272 v -8.71986 c 0,-0.32825 -0.19329,-0.62935 -0.47563,-0.79271 l -7.61006,-4.439205 c -0.14104,-0.0837 -0.23819,-0.0786 -0.39635,-0.0786 z"
     sodipodi:nodetypes="sccssccccssccssccssccccssccs" />
</svg>
